<?xml version="1.0" encoding="UTF-8"?>
<svg width="32px" height="32px" viewBox="0 0 32 32" version="1.1" xmlns="http://www.w3.org/2000/svg">
    <title>Crawl4AI Icon</title>
    <g id="Crawl4AI" stroke="none" stroke-width="1" fill="none" fill-rule="evenodd">
        <path d="M16,2 C8.268,2 2,8.268 2,16 C2,23.732 8.268,30 16,30 C23.732,30 30,23.732 30,16 C30,8.268 23.732,2 16,2 Z" id="Spider-Body" fill="#3498DB"></path>
        <path d="M16,6 C10.477,6 6,10.477 6,16 C6,21.523 10.477,26 16,26 C21.523,26 26,21.523 26,16 C26,10.477 21.523,6 16,6 Z M16,22 C12.686,22 10,19.314 10,16 C10,12.686 12.686,10 16,10 C19.314,10 22,12.686 22,16 C22,19.314 19.314,22 16,22 Z" id="Web" fill="#FFFFFF"></path>
        <circle id="Eye-1" fill="#FFFFFF" cx="13" cy="14" r="1.5"></circle>
        <circle id="Eye-2" fill="#FFFFFF" cx="19" cy="14" r="1.5"></circle>
        <!-- Spider legs -->
        <path d="M4,8 C2,6 2,4 3,3 C4,2 6,2 8,4" id="Leg-1" stroke="#2980B9" stroke-width="1.5" stroke-linecap="round"></path>
        <path d="M28,8 C30,6 30,4 29,3 C28,2 26,2 24,4" id="Leg-2" stroke="#2980B9" stroke-width="1.5" stroke-linecap="round"></path>
        <path d="M4,24 C2,26 2,28 3,29 C4,30 6,30 8,28" id="Leg-3" stroke="#2980B9" stroke-width="1.5" stroke-linecap="round"></path>
        <path d="M28,24 C30,26 30,28 29,29 C28,30 26,30 24,28" id="Leg-4" stroke="#2980B9" stroke-width="1.5" stroke-linecap="round"></path>
        <path d="M4,16 C2,16 0,15 0,14 C0,13 2,12 4,12" id="Leg-5" stroke="#2980B9" stroke-width="1.5" stroke-linecap="round"></path>
        <path d="M28,16 C30,16 32,15 32,14 C32,13 30,12 28,12" id="Leg-6" stroke="#2980B9" stroke-width="1.5" stroke-linecap="round"></path>
    </g>
</svg>