<?xml version="1.0" encoding="UTF-8"?>
<svg version="1.1" xmlns="http://www.w3.org/2000/svg" width="512" height="512">
<path d="M0 0 C0.76076555 0.00411064 1.5215311 0.00822127 2.30535015 0.01245648 C3.11380168 0.0089504 3.9222532 0.00544433 4.75520325 0.00183201 C7.49339606 -0.00755147 10.2313794 -0.00254093 12.96958145 0.00229985 C14.94082584 -0.00143292 16.91206875 -0.00603293 18.88330927 -0.0114308 C24.32296783 -0.02372237 29.76256518 -0.02339313 35.20223448 -0.02104205 C41.05985355 -0.02063543 46.91745258 -0.03165809 52.77506241 -0.04115719 C64.25941981 -0.05780155 75.74375668 -0.06326827 87.22812512 -0.06438194 C96.55824251 -0.06529994 105.88835392 -0.06941094 115.21846947 -0.07578319 C117.90112959 -0.07757819 120.58378971 -0.07935782 123.26644984 -0.08113295 C124.26673565 -0.08179609 124.26673565 -0.08179609 125.28722925 -0.08247263 C144.05206561 -0.09478602 162.81689965 -0.10267325 181.58174023 -0.10178608 C182.28963975 -0.10175492 182.99753926 -0.10172376 183.72689028 -0.10169166 C187.3150753 -0.10152544 190.90326031 -0.10132735 194.49144533 -0.10112225 C195.20411221 -0.10108235 195.9167791 -0.10104246 196.65104196 -0.10100137 C198.0922286 -0.10092049 199.53341525 -0.1008369 200.97460189 -0.10075058 C223.4039083 -0.0995247 245.83315428 -0.11454301 268.26244339 -0.14189571 C293.44292017 -0.17259062 318.62335723 -0.18982979 343.8038539 -0.18796927 C346.48682838 -0.18782 349.16980285 -0.18772259 351.85277733 -0.18766063 C352.84375332 -0.18762567 352.84375332 -0.18762567 353.85474903 -0.18759 C363.84413255 -0.18753218 373.83345318 -0.19825079 383.82282051 -0.21432537 C395.17864855 -0.23248102 406.53437753 -0.23693089 417.89021375 -0.22330652 C423.68900668 -0.21674855 429.48760928 -0.21676109 435.28638443 -0.23401302 C440.58804057 -0.24962439 445.88935358 -0.24700351 451.19100074 -0.22944476 C453.11561296 -0.22634834 455.04025005 -0.23010527 456.96483298 -0.24116491 C459.56826965 -0.25514238 462.17047851 -0.24481449 464.77387127 -0.22805256 C465.91150785 -0.2429571 465.91150785 -0.2429571 467.07212698 -0.25816274 C470.38936026 -0.21257556 472.12903032 -0.18830871 474.56822732 2.17121214 C475.72083323 4.5097498 475.9795289 5.99817711 475.98348221 8.5961414 C475.99194168 9.45410313 476.00040116 10.31206486 476.00911698 11.19602543 C476.00000794 12.5956905 476.00000794 12.5956905 475.99071488 14.02363163 C475.99860031 15.50716633 475.99860031 15.50716633 476.00664505 17.02067143 C476.01985358 20.29134985 476.01110373 23.56154197 476.00096878 26.83222538 C476.00298927 29.10379209 476.00590049 31.37535816 476.00966629 33.64692265 C476.01409081 38.4082973 476.00765433 43.16950315 475.99364457 47.93085819 C475.97655279 54.03770976 475.98639326 60.1441658 476.00436196 66.25100285 C476.01519623 70.94183421 476.01175505 75.63257162 476.00397858 80.3234058 C476.0019756 82.57529837 476.00443928 84.82719943 476.01141724 87.07908207 C476.01902567 90.22489137 476.00743555 93.37005778 475.99071488 96.51581913 C475.99678757 97.44892918 476.00286026 98.38203923 476.00911698 99.34342533 C475.94746335 105.5963507 475.94746335 105.5963507 474.26576981 108.87934452 C472.60253128 110.26972538 472.60253128 110.26972538 469.60253128 110.26972538 C469.60253128 114.22972538 469.60253128 118.18972538 469.60253128 122.26972538 C471.25253128 122.92972538 472.90253128 123.58972538 474.60253128 124.26972538 C475.83103652 127.95524108 475.75062518 131.35829968 475.7497023 135.19634587 C475.75337899 136.01279735 475.75705568 136.82924883 475.76084378 137.67044127 C475.77188744 140.41570049 475.77572557 143.16092187 475.77953324 145.90619999 C475.7857972 147.87057195 475.79244394 149.83494271 475.79944596 151.79931217 C475.81685784 157.14220379 475.8274075 162.48508646 475.83565149 167.82799941 C475.84079957 171.16366933 475.84687528 174.49933645 475.85316262 177.83500439 C475.87221229 188.2649054 475.88644583 198.69479931 475.89477459 209.12471437 C475.90455751 221.17740512 475.93090552 233.22991272 475.97127548 245.28253889 C476.00138901 254.59129134 476.01623879 263.89999114 476.0195556 273.20879138 C476.02191085 278.77238231 476.03093343 284.33577754 476.05601677 289.89931637 C476.07922026 295.13026882 476.08356195 300.36089562 476.07325539 305.5918861 C476.07275809 307.51400034 476.07913538 309.4361302 476.09281144 311.35819584 C476.11041194 313.97789922 476.10348334 316.59641867 476.09027848 319.21612126 C476.10124772 319.98061319 476.11221697 320.74510512 476.12351862 321.53276348 C476.08099296 325.01570414 475.84795415 326.93758282 473.75187191 329.7743116 C471.60253128 331.26972538 471.60253128 331.26972538 468.72533402 331.24994999 C465.20429194 330.14472101 462.6858838 328.66594786 459.63768753 326.58613163 C459.08721756 326.21490681 458.53674759 325.84368199 457.96959671 325.46120793 C456.19469134 324.26111637 454.42999073 323.04688477 452.66503128 321.83222538 C451.44234021 321.00193284 450.21894807 320.17267179 448.99486527 319.34443241 C446.59768276 317.72075711 444.2039767 316.09217571 441.81346878 314.45869023 C437.94978802 311.82473632 434.06237425 309.22846576 430.16503128 306.64472538 C428.60583656 305.60526224 427.04665428 304.56578033 425.48778519 303.5258289 C424.06385103 302.57709266 422.63886264 301.62993842 421.21337113 300.68354374 C414.97967425 296.53915091 408.77012385 292.36054285 402.57128128 288.16425663 C383.98729507 275.58781552 365.35966248 263.08673644 346.60253128 250.76972538 C329.81774171 239.74746136 313.127915 228.59217571 296.49901566 217.33613163 C294.83692358 216.21110607 293.17481448 215.08610567 291.51268753 213.96113163 C290.71303574 213.41981602 289.91338395 212.87850041 289.08950028 212.32078129 C279.62624837 205.92196751 270.11558244 199.59417129 260.60253128 193.26972538 C266.99090777 201.81930465 273.83421027 210.02047259 280.60253128 218.26972538 C282.10281445 220.102827 283.60281536 221.93615966 285.10253128 223.76972538 C285.8514766 224.68495976 286.60042191 225.60019413 287.37206253 226.54316288 C288.80753064 228.29790323 290.24246924 230.05307693 291.67675003 231.80878788 C296.30577058 237.47313465 300.95092934 243.12391626 305.60253128 248.76972538 C306.80957586 250.23586025 308.01660734 251.70200589 309.22362503 253.16816288 C311.25422529 255.63441919 313.28758469 258.0983153 315.32518753 260.55878788 C316.48341019 261.96257694 316.48341019 261.96257694 317.66503128 263.39472538 C318.31600785 264.18105351 318.96698441 264.96738163 319.63768753 265.77753788 C320.28608597 266.59995976 320.93448441 267.42238163 321.60253128 268.26972538 C322.45621292 269.2548914 323.30989457 270.24005741 324.18944535 271.25507694 C327.50341268 275.93962984 327.2536279 280.42608711 327.17675003 285.99628788 C327.20469641 288.10177499 327.23403801 290.20724396 327.26464066 292.31269413 C327.28494165 295.59754041 327.29012329 298.88087535 327.26830277 302.16572148 C327.17109877 319.53408694 327.17109877 319.53408694 336.07054886 333.79462773 C336.90610306 334.61140995 337.74165726 335.42819218 338.60253128 336.26972538 C342.60253128 340.92847473 342.60253128 340.92847473 342.60253128 343.26972538 C343.14007035 343.51464726 343.67760941 343.75956913 344.23143753 344.01191288 C354.69705524 349.56369031 364.132235 357.91950066 373.50853714 365.10224491 C379.32808899 369.55496952 385.19025586 373.94101748 391.10253128 378.26972538 C400.56300978 385.2015507 409.90671326 392.28373512 419.20677933 399.42914921 C420.84572575 400.68829698 422.4879814 401.94314586 424.13304886 403.19428593 C424.9363765 403.80957157 425.73970414 404.42485722 426.56737503 405.05878788 C427.28530228 405.60615605 428.00322953 406.15352421 428.74291214 406.71747929 C433.63562966 410.80148848 435.88071055 416.03190143 436.60253128 422.26972538 C437.02069189 432.59984102 432.84541933 439.96924007 425.9589766 447.44672734 C424.62707272 448.81118256 423.2838502 450.16466296 421.93065628 451.50800663 C421.20819718 452.23666432 420.48573807 452.965322 419.74138626 453.71606022 C418.2235289 455.24096649 416.70060891 456.76084909 415.17284378 458.2758289 C412.85632843 460.57845101 410.56487672 462.90411826 408.27440628 465.23261601 C406.78627486 466.72169861 405.29673722 468.2093775 403.80565628 469.69550663 C403.13238297 470.38203816 402.45910965 471.06856968 401.76543412 471.77590519 C396.15516145 477.27973543 389.93062923 481.54359858 382.06346878 482.86347538 C372.16849669 482.56286864 366.38493594 481.42866684 359.43163285 474.29243046 C356.39961087 470.93948038 353.78939998 467.320078 351.16503128 463.64472538 C349.93876507 461.95346115 348.71083698 460.2634009 347.48143753 458.57441288 C346.84737992 457.70268437 346.2133223 456.83095585 345.56005082 455.93281132 C342.30105461 451.49914574 338.9506615 447.13623508 335.60253128 442.76972538 C328.64124318 433.67084494 321.79071771 424.4982142 315.05028519 415.23456913 C313.78556897 413.51813808 312.4840991 411.82891097 311.17675003 410.14472538 C307.07613296 404.7539342 306.13812983 402.00354651 306.60253128 395.26972538 C305.76919795 392.76972538 305.76919795 392.76972538 303.60253128 391.26972538 C302.41917191 391.05187382 301.23581253 390.83402226 300.01659378 390.60956913 C293.73267836 389.13133396 289.47210174 384.50797638 284.84081253 380.23652226 C278.1044901 374.52787511 272.23667654 374.22334632 263.60253128 374.26972538 C262.22622298 374.26438718 260.84991965 374.25759655 259.47362503 374.24946171 C258.04393805 374.244351 256.61425053 374.23938878 255.18456253 374.23456913 C254.46740067 374.231563 253.7502388 374.22855686 253.01134476 374.22545964 C252.28926834 374.22266499 251.56719193 374.21987034 250.82323441 374.21699101 C250.09757279 374.21352665 249.37191117 374.2100623 248.6242598 374.20649296 C247.14601243 374.20698304 245.6677177 374.22009738 244.18968949 374.24555546 C233.45628143 374.40977601 226.75459402 372.78667638 218.60253128 365.26972538 C217.41704094 364.29692551 216.22870719 363.32756809 215.03612503 362.36347538 C214.0474141 361.50753788 213.05870316 360.65160038 212.04003128 359.76972538 C210.93806712 358.8233634 209.83519401 357.87805884 208.73143753 356.93378788 C208.20179398 356.48036015 207.67215042 356.02693241 207.12645707 355.55976444 C204.15229688 353.04206781 201.09250846 350.63256786 198.04003128 348.21113163 C194.56509923 345.44343735 191.13537843 342.62164154 187.70018753 339.80488163 C183.44018414 336.31460717 179.16474866 332.84327172 174.88646683 329.37543827 C171.28830346 326.45788157 167.69978565 323.529575 164.12596878 320.58222538 C163.39982376 319.98571171 162.67367875 319.38919804 161.92552933 318.77460819 C160.52828888 317.62640146 159.13380048 316.47483552 157.74242386 315.31953007 C157.112314 314.80293827 156.48220414 314.28634648 155.83300003 313.75410038 C155.28023392 313.29744999 154.72746781 312.8407996 154.15795121 312.37031132 C152.4735692 311.06572339 152.4735692 311.06572339 149.60253128 310.26972538 C150.0524141 310.87816288 150.50229691 311.48660038 150.96581253 312.11347538 C155.46437468 318.24378052 159.81914766 324.45520855 164.11156449 330.73066288 C167.90450434 336.27017321 171.74592954 341.77438264 175.60253128 347.26972538 C180.28728145 353.94663637 184.95246274 360.63540989 189.53539261 367.38276249 C191.93870036 370.90752449 194.40269761 374.37081416 196.95018753 377.79316288 C197.5069014 378.55088993 198.06361527 379.30861698 198.63719925 380.08930546 C199.70969596 381.54470092 200.79529091 382.99056838 201.89598832 384.42475468 C205.09068827 388.78758652 206.42106898 391.66589037 205.60253128 397.26972538 C203.04312016 399.82913651 201.37292969 399.51230856 197.88351187 399.53721219 C197.0774936 399.53275075 196.27147533 399.52828931 195.44103226 399.52369267 C194.5872721 399.52681265 193.73351194 399.52993263 192.85388026 399.53314716 C189.97640844 399.54116154 187.09914551 399.53479018 184.22167191 399.52851444 C182.16553356 399.53122278 180.10939618 399.53478282 178.05326065 399.53913456 C172.45629181 399.54827956 166.85939641 399.54470563 161.26242623 399.53837639 C155.41636054 399.53332729 149.57030131 399.5380048 143.72423539 399.54114872 C133.90517274 399.54479156 124.08614015 399.53998095 114.26708207 399.53046757 C102.90063063 399.51958242 91.53425093 399.52310778 80.16780123 399.53412038 C70.42427963 399.54318422 60.68077968 399.54448296 50.93725523 399.53924304 C45.11109444 399.53611836 39.2849674 399.5357276 33.45880875 399.54231602 C27.98252538 399.54807575 22.50633487 399.54411785 17.03006157 399.53252751 C15.0152049 399.52987355 13.00034046 399.53065847 10.98548684 399.53505284 C8.24489431 399.54048081 5.50460338 399.53370782 2.76403031 399.52369267 C1.95801204 399.52815411 1.15199376 399.53261555 0.3215507 399.53721219 C-5.16916864 399.49802546 -5.16916864 399.49802546 -7.39746872 397.26972538 C-7.64816704 394.49087816 -7.64816704 394.49087816 -7.649151 390.86035496 C-7.65205788 390.19173886 -7.65496476 389.52312276 -7.65795973 388.83424556 C-7.66531571 386.57172339 -7.65829061 384.3094677 -7.651436 382.04694706 C-7.65373823 380.41734877 -7.65691314 378.78775152 -7.66089049 377.15815645 C-7.66927988 372.66288675 -7.66509453 368.16770139 -7.65891805 363.67243129 C-7.65441142 358.83120454 -7.66136839 353.98999278 -7.6668779 349.14876896 C-7.67579275 339.65799747 -7.6738406 330.16725752 -7.66805261 320.67648476 C-7.66354433 312.96630561 -7.6629196 305.25613533 -7.66510025 297.54595524 C-7.66540671 296.45053598 -7.66571318 295.35511671 -7.66602893 294.22650293 C-7.66666835 292.00150245 -7.66731678 289.77650198 -7.66797411 287.55150151 C-7.67368354 266.66494238 -7.66710993 245.77840077 -7.65637338 224.89184451 C-7.64743732 206.95220357 -7.64898919 189.01258851 -7.6582109 171.07294804 C-7.66890274 150.26348735 -7.67313416 129.45404204 -7.66698638 108.64457899 C-7.66634925 106.42755117 -7.66572051 104.21052335 -7.66510025 101.99349552 C-7.66463742 100.35706729 -7.66463742 100.35706729 -7.66416524 98.6875799 C-7.66243504 90.98253103 -7.6653604 83.27749187 -7.67005935 75.5724445 C-7.67565614 66.18849529 -7.67417716 56.80457956 -7.66349787 47.42063421 C-7.65822489 42.62857324 -7.6562119 37.83656818 -7.66279617 33.04450756 C-7.66872431 28.66387558 -7.66553283 24.28335171 -7.65484107 19.90272963 C-7.65259363 18.31191753 -7.65377308 16.72109642 -7.65859264 15.13029003 C-7.66461178 12.97975924 -7.65850058 10.82960633 -7.649151 8.6790958 C-7.64882629 7.48102315 -7.64850159 6.28295049 -7.64816704 5.0485726 C-7.18176555 -0.12122056 -4.58228029 0.0367134 0 0 Z " fill="#020202" transform="translate(22.397468715906143,14.730274617671967)"/>
<path d="M0 0 C42.178125 -0.721875 84.35625 -1.44375 127.8125 -2.1875 C147.69528198 -2.66546021 147.69528198 -2.66546021 167.97973633 -3.15307617 C184.32556152 -3.31115723 184.32556152 -3.31115723 192.0085907 -3.3405304 C197.31281672 -3.37281279 202.60407347 -3.50011782 207.90397644 -3.69514465 C254.99881413 -5.37522706 254.99881413 -5.37522706 267.74787188 5.6487751 C273.16879442 10.89006112 277.96155389 16.59187787 282.77020454 22.38862038 C290.84418106 31.94662027 296.86379039 37.44691401 309.61251831 38.80341339 C317.52137674 39.30992384 325.37180198 39.14242569 333.28059173 38.75071692 C338.00644602 38.55568969 342.73251856 38.56733904 347.46174622 38.5539093 C356.35656598 38.49883393 365.23694388 38.26706605 374.12647277 37.96604902 C384.27080412 37.63156993 394.41481429 37.50266991 404.56363714 37.38808382 C425.38323027 37.14856229 446.18961992 36.65316688 467 36 C467 40.29 467 44.58 467 49 C465.68 49.33 464.36 49.66 463 50 C462.67 113.36 462.34 176.72 462 242 C455.24311026 237.70016107 448.50165164 233.39395481 441.8125 228.9921875 C440.96901001 228.43769928 440.12552002 227.88321106 439.25646973 227.31192017 C436.50341718 225.5009703 433.75155334 223.68822685 431 221.875 C430.04037354 221.24295654 429.08074707 220.61091309 428.09204102 219.9597168 C412.9358214 209.97246068 397.8620677 199.86871266 382.83154297 189.69354248 C369.28694914 180.52712074 355.67087868 171.47687983 342 162.5 C331.03776465 155.30173048 320.08858775 148.08732886 309.21875 140.75 C308.33150238 140.15119522 307.44425476 139.55239044 306.53012085 138.93544006 C302.09187021 135.93666092 297.66030735 132.92846747 293.23681641 129.90795898 C284.81896971 124.17473679 276.36063002 118.55073978 267.70611572 113.17922974 C263.57688389 110.615584 259.4680464 108.02007803 255.35864258 105.42480469 C253.38917362 104.19551828 251.40892405 102.98331701 249.41772461 101.78955078 C233.86534615 92.46103143 233.86534615 92.46103143 231.70117188 86.30615234 C231.50178702 82.79036374 231.71046258 79.50274347 232 76 C231.27596517 73.11872979 230.199069 71.146126 228.75 68.5 C228.16734375 67.3965625 227.5846875 66.293125 226.984375 65.15625 C221.02422462 55.67632577 211.21711561 47.31858769 200.1796875 44.3671875 C192.40024808 43.05667262 186.76920393 43.66164514 180 48 C176.14470613 51.28065145 172.6007426 54.86160854 169.04174805 58.45654297 C167.9625384 59.53196438 166.88247199 60.6065266 165.80162048 61.68029785 C162.88360548 64.5844095 159.9782315 67.50086498 157.07544303 70.42018652 C154.02956607 73.47996295 150.97349037 76.52952424 147.91889954 79.58059692 C142.79363784 84.70316099 137.6765011 89.83373258 132.56420898 94.96923828 C126.65907809 100.90099731 120.74159124 106.82020437 114.81726807 112.73279083 C109.10889413 118.43037659 103.40905177 124.13642325 97.7131443 129.84646988 C95.2928794 132.27248338 92.86973487 134.69556533 90.44421959 137.11632919 C87.58826587 139.9675018 84.73988979 142.82603802 81.89713478 145.69036865 C80.85444346 146.73861174 79.80921406 147.78433737 78.76124573 148.82730484 C77.32819448 150.25437463 75.90532676 151.69164871 74.48295593 153.12936401 C73.68493403 153.92981581 72.88691214 154.7302676 72.06470776 155.55497551 C66.90048801 161.67043845 66.28897223 167.19233624 66.46484375 174.9765625 C67.43995047 185.10887441 73.59454274 193.43853042 80.7890625 200.23046875 C83.97737162 202.78224265 86.62376869 204.87488806 90.75 205.25 C92.9674638 205.24076788 92.9674638 205.24076788 94 204 C94.75383338 201.21555423 94.75383338 201.21555423 94 198 C92.18149957 196.28528495 90.22818681 194.96237651 88.1640625 193.5546875 C82.13014795 189.21985358 78.05700224 183.11861449 76 176 C75.30839408 171.20110179 74.94299855 167.44456864 77.875 163.4375 C81.60634678 160.91335365 84.55441845 160.18612842 89 161 C100.02977268 165.40009673 106.95193763 170.81666607 113 181 C113.3815625 181.63679687 113.763125 182.27359375 114.15625 182.9296875 C115.23139147 185.56776611 115.26546641 187.7205472 115.25 190.5625 C115.25773437 191.98755859 115.25773437 191.98755859 115.265625 193.44140625 C115 196 115 196 113 199 C112.27130486 203.13534492 113.07929342 205.51187774 115.28125 208.93359375 C116.3401531 210.44481257 117.41420218 211.94548753 118.5 213.4375 C119.08096436 214.26024414 119.66192871 215.08298828 120.26049805 215.93066406 C121.51392641 217.70540053 122.77283858 219.47627407 124.03662109 221.24365234 C126.66550663 224.9342912 129.24491185 228.65827347 131.82543945 232.3828125 C133.83731762 235.28581007 135.85520514 238.18453713 137.875 241.08203125 C142.02271586 247.03254471 146.16886803 252.98414183 150.3125 258.9375 C151.3192981 260.38394897 151.3192981 260.38394897 152.34643555 261.85961914 C156.12366442 267.29023075 159.88501801 272.73118194 163.625 278.1875 C167.84046803 284.33676477 172.09962514 290.45474204 176.375 296.5625 C177.25019287 297.81293091 177.25019287 297.81293091 178.14306641 299.08862305 C178.70171387 299.8856665 179.26036133 300.68270996 179.8359375 301.50390625 C180.36928711 302.26590332 180.90263672 303.02790039 181.45214844 303.81298828 C182.46367568 305.24220927 183.48733346 306.66294209 184.52441406 308.07373047 C188 312.80350712 188 312.80350712 188 315 C125.96 315 63.92 315 0 315 C0 211.05 0 107.1 0 0 Z " fill="#EDF3FB" transform="translate(25,89)"/>
<path d="M0 0 C152.46 0 304.92 0 462 0 C462 29.7 462 59.4 462 90 C422.53437327 91.4106062 422.53437327 91.4106062 405.76757812 91.70898438 C394.26654855 91.9153206 382.7745991 92.15532057 371.28149414 92.64038086 C362.90274372 92.99382703 354.53146645 93.21603575 346.14546901 93.29309732 C341.71669682 93.33806131 337.30925293 93.44001915 332.88748741 93.70055199 C305.72711235 95.23880602 305.72711235 95.23880602 296.91383958 88.37538171 C292.55918406 84.23388476 288.75827829 79.59916899 284.92803884 74.9774754 C273.83537227 61.62732631 264.95010776 53.33552752 247.16431034 51.46647441 C234.55207217 50.54802147 221.90806237 50.77668902 209.28069771 51.18263138 C202.00649324 51.40932194 194.73538642 51.42956567 187.45818492 51.44152453 C174.49085033 51.46804186 161.53073649 51.64903488 148.56665039 51.93237305 C136.00129191 52.20665423 123.43836881 52.40493986 110.87036133 52.50463867 C110.09098982 52.510847 109.31161831 52.51705533 108.50862948 52.52345178 C104.59731544 52.5541516 100.68599213 52.58339532 96.77466166 52.61191618 C64.51036659 52.84905445 32.25958237 53.36837222 0 54 C0 36.18 0 18.36 0 0 Z " fill="#72C8FD" transform="translate(25,25)"/>
<path d="M0 0 C4.0997384 1.85107426 6.45138064 4.56624341 9.25 8 C9.73815186 8.58813477 10.22630371 9.17626953 10.72924805 9.78222656 C14.10548856 13.86367689 17.4202262 17.99390156 20.7109375 22.14453125 C23.75169702 25.93769714 26.8438872 29.68739379 29.9375 33.4375 C30.54722656 34.17661621 31.15695312 34.91573242 31.78515625 35.67724609 C32.97946293 37.12486137 34.17379805 38.5724532 35.36816406 40.02001953 C38.22899456 43.49119478 41.07605677 46.97353894 43.921875 50.45703125 C45.36804627 52.2266882 46.81610492 53.99480376 48.265625 55.76171875 C49.40257812 57.14810547 49.40257812 57.14810547 50.5625 58.5625 C51.22378906 59.36816406 51.88507813 60.17382812 52.56640625 61.00390625 C53.36949219 61.99261719 54.17257812 62.98132813 55 64 C55.64509521 64.60674561 56.29019043 65.21349121 56.95483398 65.83862305 C64.89334895 74.03447602 65.56613573 83.76430359 65.9375 94.6875 C65.97238525 95.66512299 66.00727051 96.64274597 66.04321289 97.6499939 C66.24209973 113.84099602 61.16411137 124.32242114 50.20532227 136.09106445 C48.47955432 137.84080393 46.74445612 139.58139166 45 141.3125 C44.17039764 142.16645355 43.34079529 143.0204071 42.48605347 143.90023804 C34.18208457 152.24614054 26.71486503 158.73152929 14.54663086 159.11210632 C10.61975532 159.005851 6.75235281 158.68673941 2.84970093 158.24723816 C-1.10143672 157.90444008 -4.99425094 158.03077483 -8.95306396 158.18475342 C-17.507358 158.39364257 -23.3439628 157.29605069 -29.75 151.4375 C-31.40090133 149.8206158 -33.00184337 148.1738958 -34.57714844 146.48339844 C-36.51866234 144.45926693 -38.65396127 142.77042747 -40.875 141.0625 C-45.25764756 137.59681495 -49.60277933 134.08779746 -53.9375 130.5625 C-54.63343262 129.99668213 -55.32936523 129.43086426 -56.04638672 128.84790039 C-60.72985365 125.03796783 -65.40435515 121.21722036 -70.07421875 117.390625 C-74.48839477 113.78384833 -78.91547975 110.1929693 -83.34375 106.60351562 C-87.25377898 103.43100708 -91.13921659 100.23228379 -95 97 C-93.55802042 93.69972125 -91.77180823 91.52444486 -89.22885132 88.98834229 C-88.44358566 88.2003273 -87.65832001 87.41231232 -86.84925842 86.60041809 C-85.98683029 85.74518051 -85.12440216 84.88994293 -84.23583984 84.00878906 C-83.32846573 83.10112289 -82.42109161 82.19345673 -81.48622131 81.25828552 C-79.00120797 78.77269862 -76.51007876 76.29332422 -74.01780653 73.81501865 C-71.41304986 71.22276884 -68.81396002 68.62484996 -66.21426392 66.02752686 C-61.29196785 61.11144568 -56.36459597 56.20048477 -51.43538058 51.2913425 C-45.82327399 45.7015946 -40.21684885 40.10616312 -34.61089396 34.51024675 C-23.08023972 23.00049472 -11.54247086 11.49790204 0 0 Z " fill="#32A5F9" transform="translate(276,220)"/>
<path d="M0 0 C9.6257141 4.65482294 16.30592423 10.85831043 20.609375 20.83203125 C21.49331562 24.47259082 21.1824183 27.29795873 20.8046875 31.015625 C20.5304839 37.11496479 22.09154459 41.02574503 26.1796875 45.515625 C27.68957005 47.12006233 29.21952749 48.70044189 30.76660156 50.26904297 C33.56222435 53.21050209 36.04918743 56.38972011 38.5546875 59.578125 C39.03591064 60.17052979 39.51713379 60.76293457 40.01293945 61.37329102 C43.3671875 65.59877232 43.3671875 65.59877232 43.3671875 68.953125 C41.85230255 70.83715343 41.85230255 70.83715343 39.68469238 72.99638367 C38.86851944 73.8166806 38.0523465 74.63697754 37.21144104 75.48213196 C35.85090858 76.82648567 35.85090858 76.82648567 34.46289062 78.19799805 C33.50659361 79.15344915 32.55095611 80.10956074 31.59593201 81.06628418 C28.9973191 83.66575985 26.3895425 86.25586528 23.78006554 88.84442878 C21.05608349 91.54969076 18.34056251 94.26341825 15.62414551 96.97627258 C10.477107 102.11397688 5.32246708 107.24398439 0.16507578 112.37129384 C-5.70527956 118.20814797 -11.56714556 124.05349593 -17.42830181 129.89958513 C-29.48702794 141.92693107 -41.55641114 153.94352704 -53.6328125 165.953125 C-54.90896892 164.99849912 -56.18478126 164.04341327 -57.46044922 163.08813477 C-58.17095428 162.55632095 -58.88145935 162.02450714 -59.61349487 161.47657776 C-65.77155078 156.83069781 -71.7330461 151.92134933 -77.6328125 146.953125 C-73.15932984 141.58445744 -68.41791647 136.62740036 -63.44018555 131.72631836 C-62.24159157 130.53955254 -62.24159157 130.53955254 -61.01878357 129.32881165 C-59.29449906 127.62164455 -57.56918103 125.91552084 -55.84293175 124.2103405 C-51.69974337 120.1147944 -47.56818036 116.00756014 -43.43501818 111.90190041 C-37.1020741 105.61185192 -30.76456188 99.32651165 -24.4128418 93.05541992 C-19.65493505 88.35780424 -14.91026106 83.64717525 -10.17298317 78.92874336 C-8.3669357 77.13445091 -6.55635825 75.34470629 -4.74121666 73.55961418 C-2.20868143 71.06798084 0.30798305 68.56130064 2.8215332 66.05053711 C3.57527222 65.31634552 4.32901123 64.58215393 5.10559082 63.82571411 C8.14349331 60.76365593 10.1174775 58.72304012 11.46379089 54.57203674 C11.6586623 51.79089247 11.6586623 51.79089247 9.3671875 49.953125 C5.44504244 50.24376006 3.46323427 51.35883542 0.72880554 54.11048889 C0.0487999 54.78499588 -0.63120575 55.45950287 -1.33181763 56.15444946 C-2.42694168 57.27114517 -2.42694168 57.27114517 -3.54418945 58.41040039 C-4.32520523 59.19083206 -5.10622101 59.97126373 -5.91090393 60.77534485 C-8.49056106 63.35778909 -11.05576091 65.95411355 -13.62109375 68.55078125 C-15.40669418 70.34384176 -17.19317967 72.13602128 -18.98051453 73.92735291 C-23.20228241 78.16283387 -27.41501948 82.40709789 -31.62351531 86.65575165 C-36.41610626 91.49307524 -41.22008059 96.31902543 -46.02504027 101.14405835 C-55.90700736 111.06781887 -65.77460814 121.00576238 -75.6328125 130.953125 C-77.70603905 128.87989845 -78.3067099 127.56672226 -79.3828125 124.890625 C-85.85669759 110.06257203 -95.87465536 102.74629148 -110.6328125 96.953125 C-109.19383555 93.66537134 -107.41794666 91.48710175 -104.88858032 88.95492554 C-104.10909531 88.16980087 -103.32961029 87.38467621 -102.52650452 86.57575989 C-101.67036057 85.7236644 -100.81421661 84.87156891 -99.93212891 83.99365234 C-99.03117996 83.08919876 -98.13023102 82.18474518 -97.20198059 81.25288391 C-94.73343746 78.77522888 -92.25861652 76.30393517 -89.78234529 73.83400679 C-87.19071691 71.24744457 -84.60397484 68.65600315 -82.01644897 66.06533813 C-77.67048305 61.71573437 -73.32031894 57.37036278 -68.96777344 53.02734375 C-63.9368892 48.0073437 -58.91325047 42.98017927 -53.89331496 37.94923246 C-49.58185524 33.62869468 -45.26650748 29.31206937 -40.94789064 24.99868548 C-38.36912409 22.42303577 -35.79172501 19.84605672 -33.21782303 17.26554489 C-30.34834641 14.38921462 -27.47076208 11.5211318 -24.59228516 8.65380859 C-23.74018967 7.79766464 -22.88809418 6.94152069 -22.01017761 6.05943298 C-21.22505295 5.27994797 -20.43992828 4.50046295 -19.63101196 3.69735718 C-18.95148279 3.01858206 -18.27195362 2.33980694 -17.57183266 1.64046288 C-12.00957825 -3.19981818 -6.60779729 -2.62743275 0 0 Z " fill="#D5DBE2" transform="translate(226.6328125,144.046875)"/>
<path d="M0 0 C4.75233859 2.71562205 8.55697547 5.05457787 12.75 8.375 C18.09385202 12.56133324 23.52187155 16.61620078 29 20.625 C36.78174164 26.32900097 44.46911841 32.14730425 52.12915039 38.01342773 C58.95170788 43.22791522 65.84274731 48.3427341 72.78515625 53.39648438 C86.26737937 63.24612971 86.26737937 63.24612971 87.44140625 69.26171875 C87.82772914 77.0006386 84.99369088 80.38290947 80 86 C75.93614681 90.37763763 71.74506151 94.62660402 67.52124023 98.84936523 C65.55968281 100.81532351 63.61472878 102.79678378 61.66992188 104.77929688 C60.40723127 106.04785249 59.14359129 107.31546398 57.87890625 108.58203125 C57.30781631 109.16749222 56.73672638 109.75295319 56.14833069 110.3561554 C51.27684903 115.17386007 46.25220449 118.55142007 39.375 119.5 C29.8638557 118.09094158 24.86550532 109.17517089 19.48388672 101.97021484 C17.19722675 98.8832585 14.92211573 95.78806054 12.65527344 92.68652344 C8.0989931 86.45839197 3.44529078 80.31133439 -1.25 74.1875 C-6.61058299 67.19262416 -11.84438979 60.13779297 -16.88671875 52.91015625 C-19.16475988 49.77311255 -21.3466784 46.83105606 -24 44 C-25.155 44.04125 -26.31 44.0825 -27.5 44.125 C-28.655 44.08375 -29.81 44.0425 -31 44 C-33.475 40.04 -33.475 40.04 -36 36 C-24.12 24.12 -12.24 12.24 0 0 Z " fill="#FADA44" transform="translate(361,368)"/>
<path d="M0 0 C3.67977588 3.58678516 7.07394788 7.31388276 10.375 11.25 C10.85106689 11.81485107 11.32713379 12.37970215 11.81762695 12.96166992 C15.6649846 17.54922926 19.38572446 22.22619579 23 27 C18.24294527 32.72214296 13.144737 37.99138468 7.87353516 43.23999023 C6.52622818 44.58751625 6.52622818 44.58751625 5.15170288 45.96226501 C2.70808822 48.40616461 0.26141992 50.84698562 -2.18584013 53.28723407 C-4.75009724 55.84520673 -7.31149091 58.40604351 -9.87319946 60.96656799 C-14.71589765 65.8061678 -19.5611375 70.64321453 -24.40731299 75.47933203 C-29.92807673 80.98888809 -35.44597472 86.50131047 -40.96364284 92.01396644 C-52.30592656 103.34581961 -63.65177445 114.67409718 -75 126 C-76.27615642 125.04537412 -77.55196876 124.09028827 -78.82763672 123.13500977 C-79.53814178 122.60319595 -80.24864685 122.07138214 -80.98068237 121.52345276 C-87.13873828 116.87757281 -93.1002336 111.96822433 -99 107 C-94.52651734 101.63133244 -89.78510397 96.67427536 -84.80737305 91.77319336 C-83.60877907 90.58642754 -83.60877907 90.58642754 -82.38597107 89.37568665 C-80.66168656 87.66851955 -78.93636853 85.96239584 -77.21011925 84.2572155 C-73.06693087 80.1616694 -68.93536786 76.05443514 -64.80220568 71.94877541 C-58.4692616 65.65872692 -52.13174938 59.37338665 -45.7800293 53.10229492 C-41.02212255 48.40467924 -36.27744856 43.69405025 -31.54017067 38.97561836 C-29.7341232 37.18132591 -27.92354575 35.39158129 -26.10840416 33.60648918 C-23.57586893 31.11485584 -21.05920445 28.60817564 -18.5456543 26.09741211 C-17.79191528 25.36322052 -17.03817627 24.62902893 -16.26159668 23.87258911 C-13.21415016 20.80091101 -11.24728432 18.80851695 -9.96589661 14.61891174 C-9.80963388 12.01779101 -9.80963388 12.01779101 -11 10 C-10.45730469 9.52949219 -9.91460937 9.05898437 -9.35546875 8.57421875 C-8.64003906 7.95160156 -7.92460937 7.32898438 -7.1875 6.6875 C-6.47980469 6.07261719 -5.77210938 5.45773438 -5.04296875 4.82421875 C-3.29863261 3.26665665 -1.63221959 1.67341125 0 0 Z " fill="#72C8FD" transform="translate(248,184)"/>
<path d="M0 0 C4.52815133 2.96671983 7.45827109 7.32793828 9.15234375 12.41015625 C9.6899509 18.75392062 8.83382171 23.14125201 5.15234375 28.41015625 C0.60217622 33.20981077 -3.51569621 34.59543798 -10.03515625 34.84765625 C-15.76217922 34.80296376 -19.08506915 33.9662221 -23.32421875 30.09375 C-28.13940993 24.77234641 -28.50359565 19.59804105 -28.3203125 12.609375 C-27.5844309 7.62849048 -25.62115905 4.67091132 -21.84765625 1.41015625 C-14.6456835 -3.69669716 -7.89737795 -3.76644179 0 0 Z " fill="#060706" transform="translate(404.84765625,53.58984375)"/>
<path d="M0 0 C5.11010438 2.99857068 9.19858171 6.72138217 11.8828125 12.08984375 C12.61478223 18.88670557 12.6899539 24.83656277 8.48046875 30.46484375 C3.88084536 35.1431893 -0.77142392 36.33325833 -7.2421875 36.58984375 C-12.30754101 36.40483714 -15.29890212 35.62175773 -19.1171875 32.08984375 C-23.88350311 26.79393751 -25.64631935 22.77744321 -25.5 15.69140625 C-24.68917201 10.18108542 -21.55725715 6.45790991 -17.6171875 2.71484375 C-12.13009356 -0.85176731 -6.27664325 -2.69826176 0 0 Z " fill="#020405" transform="translate(453.1171875,51.91015625)"/>
<path d="M0 0 C4.92265695 2.2855193 7.81049249 5.71694706 11 10 C12.66881717 15.0064515 13.09634876 20.32964015 11.05859375 25.29296875 C8.05687399 30.30838139 4.6690662 34.11031127 -1 36 C-6.51156333 36.48514482 -11.37671062 36.76737316 -16.4375 34.375 C-20.7920828 30.33904521 -24.64414004 26.71611133 -25.23828125 20.51171875 C-25.39773933 14.44391917 -25.25047063 10.69788859 -21 6 C-14.25164199 -0.31797803 -9.13074137 -0.79058858 0 0 Z " fill="#030303" transform="translate(350,52)"/>
<path d="M0 0 C3.83342952 1.73549809 5.40252938 3.60379407 7.75 7.125 C8.67039062 8.49011719 8.67039062 8.49011719 9.609375 9.8828125 C10.29773438 10.93082031 10.29773438 10.93082031 11 12 C9.70280076 14.85779017 8.3363174 16.91008536 6.11083984 19.11621094 C5.5303891 19.69651062 4.94993835 20.2768103 4.35189819 20.87469482 C3.72788116 21.48838928 3.10386414 22.10208374 2.4609375 22.734375 C1.82008209 23.37240051 1.17922668 24.01042603 0.51895142 24.66778564 C-1.52437821 26.69994069 -3.57455982 28.72502218 -5.625 30.75 C-7.0134786 32.1284453 -8.4015049 33.50734636 -9.7890625 34.88671875 C-13.18748697 38.26311894 -16.59207254 41.63319288 -20 45 C-23.32116353 43.38880357 -26.23739 41.51553868 -29.25 39.375 C-30.14203125 38.74335938 -31.0340625 38.11171875 -31.953125 37.4609375 C-32.62859375 36.97882813 -33.3040625 36.49671875 -34 36 C-32.65427113 33.00056095 -31.16462899 30.91923821 -28.83544922 28.60839844 C-27.87467972 27.64785553 -27.87467972 27.64785553 -26.89450073 26.66790771 C-26.20486237 25.98859192 -25.515224 25.30927612 -24.8046875 24.609375 C-24.09724396 23.90476135 -23.38980042 23.20014771 -22.66091919 22.47418213 C-20.40360138 20.2280461 -18.13942367 17.98896991 -15.875 15.75 C-14.34199047 14.22702283 -12.80943285 12.70359061 -11.27734375 11.1796875 C-7.52345427 7.44783185 -3.76391086 3.72174649 0 0 Z " fill="#70C6F9" transform="translate(343,348)"/>
<path d="M0 0 C2.4375 1.625 2.4375 1.625 4 4 C4.58674844 8.0338955 4.35608261 10.27235293 2.5625 13.9375 C-0.69222138 16.55715379 -2.77411083 16.72735916 -6.87109375 16.484375 C-9 16 -9 16 -11.5625 13.875 C-13.25419769 10.49160462 -13.62195931 8.73175586 -13 5 C-9.09189138 -0.86216294 -6.85666425 -1.53683854 0 0 Z " fill="#008474" transform="translate(451,62)"/>
<path d="M0 0 C4.0318506 1.3439502 5.32041925 2.42675465 7.375 6.125 C7.99695931 9.85675586 7.62919769 11.61660462 5.9375 15 C2.68514819 17.69707223 0.64174534 17.85769288 -3.49609375 17.60546875 C-5.625 17.125 -5.625 17.125 -8.1875 15.0625 C-10.01660679 11.32476004 -10.35897997 9.23528784 -9.625 5.125 C-6.49148819 1.45649837 -4.86447322 0.16774046 0 0 Z " fill="#F65055" transform="translate(344.625,60.875)"/>
<path d="M0 0 C2.5 1.5 2.5 1.5 4 4 C4.791013 8.02098277 4.62153384 10.96411027 2.5 14.5 C-1.03588973 16.62153384 -3.97901723 16.791013 -8 16 C-10.5 14.5 -10.5 14.5 -12 12 C-12.791013 7.97901723 -12.62153384 5.03588973 -10.5 1.5 C-6.96411027 -0.62153384 -4.02098277 -0.791013 0 0 Z " fill="#F7D843" transform="translate(399,62)"/>
</svg>
