<?xml version="1.0" encoding="UTF-8"?>
<svg width="32px" height="32px" viewBox="0 0 32 32" version="1.1" xmlns="http://www.w3.org/2000/svg" xmlns:xlink="http://www.w3.org/1999/xlink">
    <title>Crawl4AI</title>
    <g id="Page-1" stroke="none" stroke-width="1" fill="none" fill-rule="evenodd">
        <g id="crawl4ai">
            <circle id="Background" fill="#3B82F6" cx="16" cy="16" r="16"></circle>
            <g id="Spider" transform="translate(5.000000, 4.000000)" fill="#FFFFFF">
                <circle id="Body" cx="11" cy="12" r="5"></circle>
                <circle id="Head" cx="11" cy="6" r="3"></circle>
                <path d="M2,3 C3.5,4.5 5,5.5 7,6" id="Leg1" stroke="#FFFFFF" stroke-width="1.5" stroke-linecap="round"></path>
                <path d="M1,8 C2.5,9 4.5,9.5 7,9" id="Leg2" stroke="#FFFFFF" stroke-width="1.5" stroke-linecap="round"></path>
                <path d="M2,14 C3.5,13 5.5,12 7,12" id="Leg3" stroke="#FFFFFF" stroke-width="1.5" stroke-linecap="round"></path>
                <path d="M5,19 C6,18 7,16.5 8,15" id="Leg4" stroke="#FFFFFF" stroke-width="1.5" stroke-linecap="round"></path>
                <path d="M20,3 C18.5,4.5 17,5.5 15,6" id="Leg5" stroke="#FFFFFF" stroke-width="1.5" stroke-linecap="round"></path>
                <path d="M21,8 C19.5,9 17.5,9.5 15,9" id="Leg6" stroke="#FFFFFF" stroke-width="1.5" stroke-linecap="round"></path>
                <path d="M20,14 C18.5,13 16.5,12 15,12" id="Leg7" stroke="#FFFFFF" stroke-width="1.5" stroke-linecap="round"></path>
                <path d="M17,19 C16,18 15,16.5 14,15" id="Leg8" stroke="#FFFFFF" stroke-width="1.5" stroke-linecap="round"></path>
                <circle id="Eye1" fill="#3B82F6" cx="10" cy="5.5" r="0.75"></circle>
                <circle id="Eye2" fill="#3B82F6" cx="12" cy="5.5" r="0.75"></circle>
            </g>
        </g>
    </g>
</svg>
